<?xml version="1.0" standalone="no"?>
<!DOCTYPE svg PUBLIC "-//W3C//DTD SVG 20010904//EN"
 "http://www.w3.org/TR/2001/REC-SVG-20010904/DTD/svg10.dtd">
<svg version="1.0" xmlns="http://www.w3.org/2000/svg"
 width="500.000000pt" height="500.000000pt" viewBox="0 0 500.000000 500.000000"
 preserveAspectRatio="xMidYMid meet">

<g transform="translate(0.000000,500.000000) scale(0.100000,-0.100000)"
fill="#000000" stroke="none">
<path d="M0 2500 l0 -2500 2500 0 2500 0 0 2500 0 2500 -2500 0 -2500 0 0
-2500z m2637 1356 c121 -11 267 -50 372 -98 67 -32 280 -160 348 -209 122 -89
268 -259 347 -402 42 -77 52 -107 34 -106 -7 0 -26 28 -43 62 -16 33 -54 95
-84 137 -55 75 -201 233 -209 226 -2 -3 8 -17 22 -33 62 -66 158 -220 210
-337 37 -83 7 -73 -33 12 -74 156 -147 259 -275 388 -118 118 -172 153 -323
207 -203 73 -353 92 -575 73 -175 -15 -442 -110 -482 -170 -9 -14 -21 -26 -27
-26 -11 0 -135 -80 -178 -115 -138 -111 -247 -233 -325 -362 -25 -42 -41 -60
-51 -56 -8 3 -15 7 -15 10 0 10 78 125 138 203 221 284 479 453 807 527 80 18
331 26 415 13 30 -4 78 -11 105 -14 l50 -6 -40 15 c-114 44 -372 58 -539 29
-377 -66 -685 -259 -878 -550 -35 -55 -68 -108 -72 -118 -3 -10 -9 -16 -12
-13 -19 18 116 222 213 323 284 294 664 429 1100 390z m-707 -877 c0 -64 2
-70 18 -64 136 58 297 95 419 96 103 1 127 -12 94 -52 l-21 -24 3 25 2 25 -98
-2 c-105 -2 -260 -38 -369 -86 l-54 -24 -13 -142 c-7 -78 -12 -144 -10 -146 2
-2 42 7 88 21 93 27 131 30 131 12 0 -8 -16 -14 -38 -15 -21 -1 -72 -13 -113
-26 l-74 -23 -13 -133 c-7 -73 -12 -134 -10 -136 2 -2 36 8 76 21 83 28 185
43 292 44 87 0 120 -7 120 -26 0 -10 -6 -11 -31 -2 -41 14 -233 4 -314 -17
-33 -9 -80 -26 -105 -38 -42 -21 -45 -25 -50 -69 -7 -60 -17 -69 -41 -39 -21
26 -18 53 8 83 14 15 30 152 32 271 l1 28 -43 -26 c-48 -27 -57 -30 -57 -15 0
5 24 23 54 40 l53 30 6 83 c4 45 10 111 13 145 l7 64 -54 -27 c-30 -15 -80
-43 -112 -62 -32 -19 -61 -32 -65 -28 -11 11 46 52 144 102 l92 47 7 78 c3 43
11 78 16 78 5 0 9 -32 9 -71z m1118 -84 c2 -10 -2 -21 -10 -26 -17 -11 16 -11
106 1 65 8 96 5 96 -9 0 -3 -26 -7 -58 -9 -31 -1 -79 -8 -107 -15 l-50 -12 -7
-60 c-4 -33 -8 -158 -10 -277 -2 -166 -6 -218 -15 -218 -10 0 -13 29 -13 111
l0 111 -41 -37 c-37 -34 -42 -35 -62 -22 -15 9 -25 31 -31 66 -5 28 -12 51
-15 51 -3 0 -20 -24 -36 -53 -34 -57 -58 -67 -63 -25 l-3 27 -36 -25 c-66 -44
-133 -23 -133 41 0 54 65 120 95 95 20 -16 -1 -57 -38 -76 -38 -20 -35 -58 6
-62 46 -5 95 33 123 96 30 69 50 60 29 -13 -22 -70 -14 -75 23 -15 18 28 38
50 45 47 6 -2 15 -27 18 -55 4 -29 9 -59 13 -67 10 -28 42 -16 72 28 30 41 31
48 37 185 4 78 4 142 0 142 -20 0 -154 -45 -185 -63 -39 -21 -63 -17 -37 7 17
16 104 49 178 66 49 11 55 16 69 52 16 39 34 46 40 13z m-614 -342 c-21 -150
-1 -168 58 -54 61 120 84 126 28 7 -55 -115 -98 -147 -121 -88 -19 48 5 192
32 192 8 0 9 -16 3 -57z m686 50 c-1 -5 -9 -33 -20 -63 -17 -51 -18 -70 -2
-70 4 0 23 25 42 55 40 63 60 70 60 23 0 -37 19 -79 37 -85 6 -2 30 12 52 32
22 20 46 35 52 33 16 -5 -77 -88 -100 -88 -28 0 -49 25 -57 65 l-6 35 -37 -52
c-43 -61 -66 -71 -81 -33 -10 27 1 99 21 136 9 18 39 27 39 12z m483 -701
c-126 -220 -354 -468 -533 -581 -50 -32 -3 -18 75 22 157 81 321 214 420 341
53 68 157 227 168 259 2 7 8 9 12 5 11 -10 -76 -165 -144 -255 -273 -364 -708
-558 -1211 -540 -171 7 -286 28 -418 76 -299 109 -529 315 -660 591 -59 124
-60 130 -24 130 28 0 34 -8 77 -87 55 -103 144 -230 228 -326 198 -225 462
-340 817 -354 185 -7 321 17 492 88 227 93 459 306 647 592 64 97 105 127 54
39z"/>
<path d="M1827 2206 c-4 -10 -5 -21 -2 -24 9 -9 17 6 13 25 -3 17 -4 17 -11
-1z"/>
<path d="M2610 2570 c-6 -11 -7 -20 -2 -20 10 0 32 21 32 32 0 16 -19 8 -30
-12z"/>
<path d="M1400 1725 c0 -4 9 -18 20 -32 11 -14 20 -22 20 -18 0 4 -9 18 -20
32 -11 14 -20 22 -20 18z"/>
<path d="M1450 1651 c0 -6 4 -13 10 -16 6 -3 7 1 4 9 -7 18 -14 21 -14 7z"/>
</g>
</svg>
